<svg width="48" height="48" viewBox="0 0 48 48" fill="none" xmlns="http://www.w3.org/2000/svg">
<path d="M3.29691 23.348C3.36294 22.5768 3.60886 21.8319 4.01491 21.173C4.91291 19.703 6.71891 16.889 8.72691 14.546C8.72691 14.546 8.64791 11.355 8.59191 8.188C8.56471 6.91974 9.03652 5.6915 9.90581 4.7676C10.7751 3.84371 11.9723 3.29803 13.2399 3.248C16.1999 3.126 20.1739 3 23.9999 3C27.8259 3 31.7989 3.126 34.7599 3.248C36.0273 3.29829 37.2243 3.84408 38.0934 4.76794C38.9624 5.69181 39.4341 6.91991 39.4069 8.188C39.3685 10.3075 39.3239 12.4268 39.2729 14.546C41.2819 16.889 43.0869 19.703 43.9849 21.174C44.3899 21.836 44.6369 22.573 44.7019 23.347C44.8959 25.647 45.2219 31.39 44.7779 40.946C44.7324 41.9264 44.32 42.8539 43.6226 43.5444C42.9252 44.235 41.9937 44.6382 41.0129 44.674C37.2729 44.814 30.9819 45 23.9999 45C17.0179 45 10.7269 44.814 6.98691 44.674C6.00611 44.6382 5.0746 44.235 4.37719 43.5444C3.67978 42.8539 3.26742 41.9264 3.22191 40.946C2.77891 31.391 3.10391 25.647 3.29691 23.348Z" stroke="black" stroke-width="3" stroke-linecap="round" stroke-linejoin="round"/>
<path d="M27.9988 23.334C27.6425 24.1954 27.3809 25.093 27.2188 26.011C26.6698 29.07 28.9328 32 32.0428 32C35.1328 32 37.3178 29.04 36.6908 26.013C36.4838 25.0003 36.1617 24.0146 35.7308 23.075C35.0798 21.672 33.5878 21 32.0418 21C30.3248 21 28.6578 21.748 27.9978 23.334H27.9988Z" stroke="black" stroke-width="3" stroke-linecap="round"/>
<path d="M15.0099 10.905C15.0439 9.865 15.8529 9.183 16.8929 9.132C18.2129 9.067 20.4419 9 23.9999 9C27.5579 9 29.7869 9.067 31.1069 9.132C32.1469 9.183 32.9559 9.865 32.9899 10.905C33.0032 11.3016 33.0032 11.6984 32.9899 12.095C32.9549 13.135 32.1469 13.817 31.1069 13.868C29.7869 13.933 27.5579 14 23.9999 14C20.4419 14 18.2129 13.933 16.8929 13.868C15.8529 13.817 15.0439 13.135 15.0089 12.095C14.9957 11.6984 14.9957 11.3016 15.0089 10.905H15.0099Z" stroke="black" stroke-width="3" stroke-linecap="round" stroke-linejoin="round"/>
<path d="M16 21V39" stroke="black" stroke-width="3" stroke-linecap="round" stroke-linejoin="round"/>
<path d="M32 32V39" stroke="black" stroke-width="3" stroke-linecap="round" stroke-linejoin="round"/>
<path d="M11.4998 21L11.1928 26.995C11.0848 29.103 12.6348 30.927 14.7448 30.983C15.5817 31.0051 16.419 31.0051 17.2558 30.983C19.3658 30.927 20.9158 29.103 20.8078 26.996L20.4998 21" stroke="black" stroke-width="3" stroke-linecap="round" stroke-linejoin="round"/>
</svg>
