<svg width="48" height="48" viewBox="0 0 48 48" fill="none" xmlns="http://www.w3.org/2000/svg">
<path d="M45.0001 13H24.0001C15.5641 13 10.0331 12.914 6.9691 12.845C5.0951 12.803 3.3801 11.797 3.1251 9.94C3.03939 9.29693 2.99762 8.64876 3.0001 8C3.0001 7.262 3.0501 6.617 3.1251 6.06C3.3801 4.203 5.0951 3.197 6.9691 3.155C10.0331 3.086 15.5641 3 24.0001 3H45.0001" stroke="black" stroke-width="3" stroke-linecap="round" stroke-linejoin="round"/>
<path d="M45.0001 13H24.0001C15.5641 13 10.0331 13.086 6.9691 13.155C5.0951 13.197 3.3801 14.203 3.1251 16.06C3.03939 16.7031 2.99762 17.3512 3.0001 18C3.0001 18.738 3.0501 19.383 3.1251 19.94C3.3801 21.797 5.0951 22.803 6.9691 22.845C8.1661 22.872 9.7411 22.901 11.7181 22.927" stroke="black" stroke-width="3" stroke-linecap="round" stroke-linejoin="round"/>
<path d="M45.0002 23H32.7512" stroke="black" stroke-width="3" stroke-linecap="round" stroke-linejoin="round"/>
<path d="M11.5912 13C10.3802 18.314 10.9602 22.855 14.0002 28C16.3602 31.995 17.2392 36.831 16.9462 41.28C16.8192 43.203 18.2702 45 20.1962 45C22.0632 45 23.7362 43.71 23.9012 41.85" stroke="black" stroke-width="3" stroke-linecap="round" stroke-linejoin="round"/>
<path d="M18.5912 13C17.3802 18.314 17.9602 22.855 21.0002 28C23.3602 31.995 24.2392 36.831 23.9462 41.28C23.8192 43.203 25.2702 45 27.1962 45C29.0632 45 30.7362 43.71 30.9012 41.85C31.3112 37.247 30.4622 32.166 28.0002 28C24.9602 22.855 24.3792 18.314 25.5912 13" stroke="black" stroke-width="3" stroke-linecap="round" stroke-linejoin="round"/>
<path d="M32.5902 13C31.3782 18.314 31.9592 22.855 35.0002 28C37.4622 32.166 38.3102 37.247 37.9012 41.85C37.7362 43.71 36.0622 45 34.1962 45C32.2702 45 30.8192 43.203 30.9462 41.28" stroke="black" stroke-width="3" stroke-linecap="round" stroke-linejoin="round"/>
</svg>
