<svg width="48" height="48" viewBox="0 0 48 48" fill="none" xmlns="http://www.w3.org/2000/svg">
<g clip-path="url(#clip0_329_13133)">
<path d="M2.16997 27.142C3.52497 37.58 12.782 46 24 46C35.217 46 44.473 37.58 45.828 27.142C46.023 25.642 44.868 24.395 43.358 24.32C40.451 24.177 34.698 24 23.999 24C13.3 24 7.54697 24.177 4.64097 24.32C3.12897 24.395 1.97497 25.642 2.16997 27.142Z" stroke="black" stroke-width="3" stroke-linecap="round" stroke-linejoin="round"/>
<path d="M43.272 24.316C43.7981 23.0888 44.0445 21.76 43.9934 20.4258C43.9423 19.0916 43.5951 17.7854 42.9767 16.6021C42.3584 15.4187 41.4845 14.3877 40.4184 13.5839C39.3523 12.78 38.1207 12.2235 36.8129 11.9545C35.5051 11.6856 34.1538 11.711 32.8571 12.0289C31.5603 12.3468 30.3505 12.9492 29.3153 13.7926C28.2802 14.6359 27.4457 15.699 26.8723 16.9048C26.2989 18.1106 26.0009 19.4288 26 20.764C25.9985 21.8718 26.2019 22.9703 26.6 24.004" stroke="black" stroke-width="3" stroke-linecap="round" stroke-linejoin="round"/>
<path d="M31.905 12.228C32.397 9.576 31.434 6.954 29.265 5.702C27.037 4.415 24.192 4.954 22.127 6.826C22.0335 6.63529 21.9334 6.44785 21.827 6.264C19.619 2.437 15.114 0.902998 11.766 2.836C8.63205 4.645 7.62205 8.85 9.31705 12.52C7.38205 12.672 5.65005 13.623 4.70305 15.264C3.04605 18.134 4.41705 22.027 7.76505 23.96C7.89905 24.037 8.03305 24.11 8.16905 24.178" stroke="black" stroke-width="3" stroke-linecap="round" stroke-linejoin="round"/>
<path d="M17.3101 12.77C18.6884 14.2509 19.6576 16.065 20.1223 18.034C20.5869 20.0031 20.531 22.0591 19.9601 24" stroke="black" stroke-width="3" stroke-linecap="round" stroke-linejoin="round"/>
<path d="M37.7179 30C36.4058 32.9362 34.2031 35.3852 31.4219 37" stroke="black" stroke-width="3" stroke-linecap="round" stroke-linejoin="round"/>
</g>
<defs>
<clipPath id="clip0_329_13133">
<rect width="48" height="48" fill="white"/>
</clipPath>
</defs>
</svg>
