<svg width="48" height="48" viewBox="0 0 48 48" fill="none" xmlns="http://www.w3.org/2000/svg">
<path d="M3.30911 22.452C3.30911 13.162 11.9481 8 24.0001 8C36.0521 8 44.6921 13.161 44.6921 22.452C44.6921 25.348 41.0031 25.499 38.5891 23.899C37.1191 22.923 35.4591 22.263 33.7451 22.048C30.5129 21.6366 27.2583 21.4266 24.0001 21.419C20.3901 21.419 17.0441 21.696 14.2541 22.048C12.5411 22.263 10.8801 22.923 9.41011 23.898C6.99611 25.499 3.30911 25.348 3.30911 22.452Z" stroke="black" stroke-width="3" stroke-linecap="round" stroke-linejoin="round"/>
<path d="M5.772 24.9C3.998 26.574 3 28.698 3 31.304C3 36.438 7.034 39.707 12.165 39.854C15.078 39.94 18.94 40 24 40C29.061 40 32.922 39.939 35.835 39.855C40.966 39.707 45 36.438 45 31.305C45 28.698 44.002 26.575 42.228 24.901" stroke="black" stroke-width="3" stroke-linecap="round" stroke-linejoin="round"/>
<path d="M14 22C14.143 14.344 18.531 8.95 24 8" stroke="black" stroke-width="3" stroke-linecap="round"/>
<path d="M27 21C27.485 15.228 31.839 11.406 37 11" stroke="black" stroke-width="3" stroke-linecap="round"/>
</svg>
