<svg width="48" height="48" viewBox="0 0 48 48" fill="none" xmlns="http://www.w3.org/2000/svg">
<path d="M3.514 10.617C3.727 8.413 5.354 6.777 7.558 6.57C10.5 6.292 15.594 6 24 6C32.406 6 37.5 6.292 40.442 6.57C42.646 6.778 44.273 8.413 44.486 10.617C44.741 13.255 45 17.529 45 24C45 30.472 44.74 34.746 44.486 37.383C44.273 39.587 42.646 41.223 40.442 41.43C37.5 41.708 32.407 42 24 42C15.594 42 10.5 41.708 7.558 41.43C5.353 41.222 3.727 39.587 3.514 37.383C3.26 34.745 3 30.471 3 24C3 17.528 3.26 13.254 3.514 10.617Z" stroke="black" stroke-width="3" stroke-linecap="round" stroke-linejoin="round"/>
<path d="M25.1037 33.32C25.1421 34.686 25.8013 35.742 26.6762 35.812C27.8371 35.905 29.8058 36 33 36C36.1936 36 38.1629 35.905 39.3238 35.812C40.1987 35.742 40.8579 34.686 40.8963 33.319C40.9475 31.52 41 28.551 41 24C41 19.449 40.9469 16.48 40.8963 14.68C40.8579 13.314 40.1987 12.258 39.3238 12.188C38.1629 12.095 36.1942 12 33 12C29.8064 12 27.8371 12.095 26.6762 12.188C25.8013 12.258 25.1427 13.314 25.1037 14.681C25.0525 16.48 25 19.449 25 24C25 28.551 25.0531 31.52 25.1037 33.32Z" stroke="black" stroke-width="3" stroke-linecap="round" stroke-linejoin="round"/>
<path d="M8.08424 19.995C8.11544 20.5072 8.65104 20.9033 9.36188 20.9295C10.3052 20.9644 11.9047 21 14.5 21C17.0948 21 18.6948 20.9644 19.6381 20.9295C20.349 20.9033 20.8846 20.5073 20.9158 19.9946C20.9574 19.32 21 18.2066 21 16.5C21 14.7934 20.9568 13.68 20.9158 13.005C20.8846 12.4928 20.349 12.0967 19.6381 12.0705C18.6948 12.0356 17.0953 12 14.5 12C11.9052 12 10.3052 12.0356 9.36188 12.0705C8.65104 12.0967 8.11596 12.4927 8.08424 13.0054C8.04264 13.68 8 14.7934 8 16.5C8 18.2066 8.04316 19.32 8.08424 19.995Z" stroke="black" stroke-width="3" stroke-linecap="round" stroke-linejoin="round"/>
<path d="M8.08424 34.7717C8.11544 35.3978 8.65104 35.8818 9.36188 35.9138C10.3052 35.9565 11.9047 36 14.5 36C17.0948 36 18.6948 35.9565 19.6381 35.9138C20.349 35.8818 20.8846 35.3978 20.9158 34.7712C20.9574 33.9467 21 32.5859 21 30.5C21 28.4141 20.9568 27.0533 20.9158 26.2283C20.8846 25.6023 20.349 25.1182 19.6381 25.0862C18.6948 25.0435 17.0953 25 14.5 25C11.9052 25 10.3052 25.0435 9.36188 25.0862C8.65104 25.1182 8.11596 25.6022 8.08424 26.2288C8.04264 27.0533 8 28.4141 8 30.5C8 32.5859 8.04316 33.9467 8.08424 34.7717Z" stroke="black" stroke-width="3" stroke-linecap="round" stroke-linejoin="round"/>
</svg>
