<svg width="48" height="48" viewBox="0 0 48 48" fill="none" xmlns="http://www.w3.org/2000/svg">
<path d="M21.393 4.58701C19.039 3.44201 16.395 4.53101 15.167 6.84301C6.30199 23.543 1.42799 42.515 3.45699 44.543C5.48599 46.573 24.458 41.698 41.157 32.833C43.47 31.606 44.559 28.961 43.414 26.607C41.917 23.529 39.121 18.986 34.068 13.933C29.015 8.88001 24.471 6.08301 21.393 4.58701Z" stroke="black" stroke-width="3" stroke-linecap="round"/>
<path d="M39.3269 33.783C38.2219 30.963 35.4469 25.402 29.0729 19.027C22.6979 12.653 17.1369 9.87801 14.3159 8.77301" stroke="black" stroke-width="3" stroke-linecap="round"/>
<path d="M5.7771 29.717C6.6711 30.049 7.6371 30.231 8.6471 30.231C10.5671 30.2321 12.4269 29.5615 13.9045 28.3356C15.3821 27.1096 16.3842 25.4053 16.7374 23.5181C17.0906 21.6309 16.7725 19.6797 15.8383 18.0023C14.904 16.325 13.4125 15.0273 11.6221 14.334" stroke="black" stroke-width="3" stroke-linecap="round"/>
<path d="M23.368 40.667C23.1353 39.7316 22.7171 38.8524 22.1382 38.0817C21.5593 37.311 20.8315 36.6644 19.998 36.1802C19.1644 35.6961 18.2422 35.3843 17.2858 35.2634C16.3295 35.1425 15.3587 35.2149 14.4309 35.4763C13.5031 35.7376 12.6372 36.1827 11.8847 36.7851C11.1322 37.3875 10.5083 38.1348 10.0501 38.9829C9.59188 39.8309 9.30866 40.7624 9.21725 41.7219C9.12584 42.6815 9.2281 43.6497 9.51795 44.569" stroke="black" stroke-width="3" stroke-linecap="round"/>
<path d="M30 29C30 30.0609 29.5786 31.0783 28.8284 31.8284C28.0783 32.5786 27.0609 33 26 33C24.9391 33 23.9217 32.5786 23.1716 31.8284C22.4214 31.0783 22 30.0609 22 29C22 27.9391 22.4214 26.9217 23.1716 26.1716C23.9217 25.4214 24.9391 25 26 25C27.0609 25 28.0783 25.4214 28.8284 26.1716C29.5786 26.9217 30 27.9391 30 29Z" stroke="black" stroke-width="3" stroke-linecap="round"/>
</svg>
