<svg width="48" height="48" viewBox="0 0 48 48" fill="none" xmlns="http://www.w3.org/2000/svg">
<path fill-rule="evenodd" clip-rule="evenodd" d="M43.1101 27.45C40.5221 31.26 37.9761 32.058 34.8341 33.041C32.9881 33.619 30.9351 34.261 28.5461 35.619C26.6061 36.721 24.8601 38.052 23.1891 39.326C18.8311 42.648 14.9861 45.58 9.53408 43.038C1.99008 39.52 0.410079 29.104 7.80808 16.306C15.2051 3.51002 26.7881 1.51602 35.5301 6.55702C44.2721 11.598 47.3611 20.096 43.1101 27.45Z" stroke="black" stroke-width="3" stroke-linecap="round" stroke-linejoin="round"/>
<path fill-rule="evenodd" clip-rule="evenodd" d="M21.5831 34.295C22.9301 33.28 24.4991 32.119 26.2681 31.123C28.7451 29.728 31.0941 29.001 32.7581 28.487C33.2441 28.337 33.6711 28.204 34.0261 28.078C35.4961 27.558 36.5921 26.984 37.8691 25.158C39.1691 22.864 39.3051 20.514 38.4991 18.314C37.6591 16.02 35.6961 13.648 32.4101 11.769C29.3251 10.005 25.8401 9.51603 22.5081 10.503C19.1851 11.488 15.6651 14.05 12.7681 19.02C9.73814 24.22 8.76614 28.574 9.04614 31.698C9.31614 34.695 10.6951 36.546 12.7261 37.486C13.8231 37.993 14.6341 38.057 15.3111 37.964C16.0511 37.863 16.8871 37.537 17.9591 36.886C18.9491 36.285 19.9421 35.536 21.1561 34.618L21.5831 34.295Z" stroke="black" stroke-width="3" stroke-linecap="round" stroke-linejoin="round"/>
<path d="M29 24C29.7956 24 30.5587 23.6839 31.1213 23.1213C31.6839 22.5587 32 21.7956 32 21C32 20.2044 31.6839 19.4413 31.1213 18.8787C30.5587 18.3161 29.7956 18 29 18C28.2044 18 27.4413 18.3161 26.8787 18.8787C26.3161 19.4413 26 20.2044 26 21C26 21.7956 26.3161 22.5587 26.8787 23.1213C27.4413 23.6839 28.2044 24 29 24Z" stroke="black" stroke-width="3" stroke-linecap="round" stroke-linejoin="round"/>
</svg>
