<svg width="48" height="48" viewBox="0 0 48 48" fill="none" xmlns="http://www.w3.org/2000/svg">
<path d="M42.985 21C43.274 25.789 39.251 30.266 34 31" stroke="black" stroke-width="3" stroke-linecap="round" stroke-linejoin="round"/>
<path d="M26 38C26.456 41.172 28.718 43.767 31.5 44.664" stroke="black" stroke-width="3" stroke-linecap="round" stroke-linejoin="round"/>
<path d="M44.25 34C42.322 37.835 37.957 39.14 34.5 36.914" stroke="black" stroke-width="3" stroke-linecap="round" stroke-linejoin="round"/>
<path d="M24 19V19.25" stroke="black" stroke-width="3" stroke-linecap="round" stroke-linejoin="round"/>
<path d="M12 13H7.543C5.138 13 3 11.405 3 9C3 6.595 5.144 4.966 7.534 5.243C12.128 5.775 15.87 7 19 7C23 7 25.5 5 26 2" stroke="black" stroke-width="3" stroke-linecap="round" stroke-linejoin="round"/>
<path d="M29 13C33 17.418 33 24.582 29 29" stroke="black" stroke-width="3" stroke-linecap="round" stroke-linejoin="round"/>
<path d="M28.0001 13H11.8091V17C11.8091 23.627 17.1811 29 23.8091 29H29.9991C31.3252 29 32.5969 29.5268 33.5346 30.4645C34.4723 31.4021 34.9991 32.6739 34.9991 34C34.9991 35.3261 34.4723 36.5979 33.5346 37.5355C32.5969 38.4732 31.3252 39 29.9991 39H29.6261C28.5655 39 27.5286 38.6862 26.6461 38.098L23.3901 35.927C22.4833 35.3225 21.4179 34.9999 20.3281 35H19.7881C19.1341 35 18.4865 35.1288 17.8823 35.3791C17.2781 35.6294 16.7291 35.9962 16.2667 36.4586C15.8043 36.921 15.4374 37.47 15.1872 38.0742C14.9369 38.6784 14.8081 39.326 14.8081 39.98C14.8081 42.431 16.5961 44.494 19.0411 44.68C22.3639 44.9251 25.6955 45.0306 29.0271 44.996C38.0041 44.931 44.9991 37.976 44.9991 29C44.9991 28.662 44.9991 28.33 44.9971 28.005C44.9561 19.464 38.4831 13.076 29.9421 13.008C29.2948 13.0027 28.6474 13.0001 28.0001 13Z" stroke="black" stroke-width="3" stroke-linecap="round" stroke-linejoin="round"/>
</svg>
