<svg width="48" height="48" viewBox="0 0 48 48" fill="none" xmlns="http://www.w3.org/2000/svg">
<path d="M40.29 36.31C41.529 36.752 42.5 37.663 42.5 39C42.5 41.803 39.787 43.698 36.985 43.8C34.181 43.904 29.971 44 24 44C18.03 44 13.82 43.904 11.015 43.8C8.213 43.699 5.5 41.804 5.5 39C5.5 37.663 6.472 36.752 7.711 36.31" stroke="black" stroke-width="3" stroke-linecap="round" stroke-linejoin="round"/>
<path d="M3.91991 28.905C3.28996 29.7887 2.96905 30.8555 3.00691 31.94C3.03391 32.775 3.14691 33.648 3.41491 34.435C4.04491 36.29 6.31591 36.381 8.27291 36.29C9.31091 36.242 10.4149 36.328 11.2179 36.744C14.4479 38.418 17.7959 38.418 21.0259 36.744C23.0479 35.696 24.9509 35.696 26.9729 36.744C30.2029 38.418 33.5509 38.418 36.7819 36.744C37.5849 36.328 38.6879 36.242 39.7259 36.29C41.6829 36.38 43.9539 36.29 44.5839 34.435C44.6567 34.2196 44.7184 34.0007 44.7689 33.779C45.1599 32.072 44.6849 30.351 43.6759 29.071" stroke="black" stroke-width="3" stroke-linecap="round"/>
<path d="M5.5 16.5C5.5 9.644 10.882 4.326 17.733 4.098C19.563 4.038 21.645 4 24 4C26.356 4 28.437 4.037 30.267 4.098C37.117 4.326 42.5 9.644 42.5 16.5C42.5 17.76 42.4 18.894 42.268 19.843C42 21.772 40.494 23.154 38.56 23.377C35.96 23.677 31.434 24 24 24C16.566 24 12.04 23.677 9.44 23.377C7.506 23.154 6 21.772 5.732 19.843C5.57793 18.7353 5.50042 17.6183 5.5 16.5Z" stroke="black" stroke-width="3" stroke-linecap="round" stroke-linejoin="round"/>
<path d="M6.949 22.238L6.357 22.263C4.814 22.33 3.343 23.023 3.104 24.549C3.04 24.959 3 25.439 3 26C3 26.561 3.04 27.042 3.104 27.452C3.344 28.978 4.814 29.671 6.357 29.738C9.02 29.854 14.31 30 24 30C33.3 30 38.546 29.865 41.308 29.752C43.059 29.68 44.727 28.849 44.937 27.109C44.977 26.779 45 26.409 45 26C45 25.59 44.976 25.222 44.937 24.892C44.727 23.152 43.059 22.32 41.309 22.249L41.051 22.239" stroke="black" stroke-width="3" stroke-linecap="round"/>
<path d="M36.5 15H36" stroke="black" stroke-width="3" stroke-linecap="round"/>
<path d="M30.5 11H30" stroke="black" stroke-width="3" stroke-linecap="round"/>
<path d="M29 18H29.5" stroke="black" stroke-width="3" stroke-linecap="round"/>
</svg>
