<svg width="48" height="48" viewBox="0 0 48 48" fill="none" xmlns="http://www.w3.org/2000/svg">
<path d="M8.1169 39.07C8.2219 38.523 8.7129 38.229 9.2689 38.204C10.9099 38.132 15.1319 38 23.9999 38C32.8679 38 37.0899 38.132 38.7309 38.204C39.2869 38.229 39.7779 38.523 39.8829 39.069C39.9489 39.409 39.9999 39.875 39.9999 40.5C39.9999 41.125 39.9489 41.59 39.8829 41.93C39.7779 42.477 39.2869 42.771 38.7309 42.796C37.0899 42.868 32.8679 43 23.9999 43C15.1319 43 10.9099 42.868 9.2689 42.796C8.7129 42.771 8.2219 42.477 8.1169 41.931C8.0329 41.4588 7.99373 40.9796 7.9999 40.5C7.9999 39.875 8.0509 39.41 8.1169 39.07Z" stroke="black" stroke-width="3" stroke-linecap="round" stroke-linejoin="round"/>
<path d="M39.95 7.997C39.992 6.341 38.657 5 37 5H11C9.34102 5 8.00702 6.34 8.04702 7.997C8.09602 10.027 8.19502 13.085 8.39502 17.174C8.64802 22.347 12.322 26.564 17.493 26.839C19.333 26.936 21.495 27 23.998 27C26.502 27 28.663 26.936 30.504 26.839C35.674 26.564 39.349 22.347 39.601 17.174C39.801 13.085 39.901 10.026 39.95 7.997Z" stroke="black" stroke-width="3" stroke-linecap="round" stroke-linejoin="round"/>
<path d="M8.075 9.022C6.85384 9.0864 5.63803 9.22869 4.435 9.448C3.929 9.54 3.455 9.792 3.273 10.272C3.129 10.651 3 11.21 3 12C3 12.79 3.129 13.35 3.273 13.728C3.456 14.208 3.929 14.46 4.435 14.552C5.289 14.706 6.751 14.93 8.295 14.987" stroke="black" stroke-width="3" stroke-linecap="round" stroke-linejoin="round"/>
<path d="M39.7051 14.987C41.0002 14.9305 42.2899 14.7851 43.5651 14.552C44.0721 14.46 44.5451 14.208 44.7281 13.728C44.8721 13.349 45.0011 12.79 45.0011 12C45.0011 11.21 44.8721 10.65 44.7281 10.272C44.5451 9.792 44.0721 9.54 43.5661 9.448C42.3627 9.22864 41.1466 9.08635 39.9251 9.022" stroke="black" stroke-width="3" stroke-linecap="round" stroke-linejoin="round"/>
<path d="M17 32V34" stroke="black" stroke-width="3" stroke-linecap="round" stroke-linejoin="round"/>
<path d="M24 32V34" stroke="black" stroke-width="3" stroke-linecap="round" stroke-linejoin="round"/>
<path d="M31 32V34" stroke="black" stroke-width="3" stroke-linecap="round" stroke-linejoin="round"/>
</svg>
