<svg width="48" height="48" viewBox="0 0 48 48" fill="none" xmlns="http://www.w3.org/2000/svg">
<path d="M41.5599 24.639C40.9899 13.529 33.5499 8 23.9999 8C14.4269 8 6.22291 13.577 5.62891 24.714" stroke="black" stroke-width="3" stroke-linecap="round" stroke-linejoin="round"/>
<path d="M15.1469 42.005C9.00994 39.14 4.64194 33.39 4.00694 26.62C3.91594 25.64 4.64494 24.811 5.62394 24.714C8.21194 24.459 13.9389 24.048 23.9999 24.048C34.0599 24.048 39.7879 24.458 42.3759 24.714C43.3549 24.811 44.0839 25.641 43.9919 26.621C43.3579 33.391 38.9879 39.141 32.8519 42.006C32.7939 42.372 32.7369 42.693 32.6819 42.971C32.5992 43.4237 32.3717 43.8372 32.0335 44.1492C31.6953 44.4613 31.2648 44.6549 30.8069 44.701C29.5549 44.845 27.4159 45 23.9989 45C20.5829 45 18.4439 44.845 17.1919 44.701C16.7339 44.6551 16.3032 44.4616 15.9648 44.1495C15.6264 43.8375 15.3987 43.4238 15.3159 42.971C15.2536 42.65 15.1969 42.328 15.1459 42.005H15.1469Z" stroke="black" stroke-width="3" stroke-linecap="round" stroke-linejoin="round"/>
</svg>
