<svg width="48" height="48" viewBox="0 0 48 48" fill="none" xmlns="http://www.w3.org/2000/svg">
<path d="M6.00049 30.5467C6.00049 30.2674 6.00049 29.9954 6.00293 29.7291C6.03552 23.4382 11.1188 18.9998 18.22 18.9998" stroke="black" stroke-width="3" stroke-linecap="round" stroke-linejoin="round"/>
<path d="M6.00026 30.5466C6.00026 34.0042 6.11105 35.9787 6.24628 37.6653C6.41572 39.7827 8.19082 41.3069 10.5826 41.444C12.3675 41.5457 14.8554 41.6295 18.2198 41.6295C21.5843 41.6295 24.0722 41.5457 25.857 41.444C28.2488 41.3069 30.0239 39.7827 30.1933 37.6653C30.2844 36.5292 30.5007 35.4997 29.5005 33.9997M29.4997 25.9997C29.4997 23.0859 25.321 18.9997 18.2198 18.9997" stroke="black" stroke-width="3" stroke-linecap="round" stroke-linejoin="round"/>
<path d="M39.9062 31.5809L40.5005 26.9986C40.622 25.1331 40.2687 22.2777 36.9866 21.3983C33.7045 20.5188 30.9994 23 29.9999 25.5001C29.0005 28.0001 28.9994 31 28.9994 32.5C28.9994 35 33.4994 35.746 33.4994 35.746C33.4994 35.746 35.0319 36.1651 35.9991 35.9999C38.2697 35.6121 39.5775 34.11 39.9062 31.5809Z" stroke="black" stroke-width="3" stroke-linecap="round" stroke-linejoin="round"/>
<path d="M35.5004 20.5L36.5014 13.9987C36.6229 12.1333 36.2696 9.27784 32.9875 8.3984C29.7053 7.51896 27.7117 9.74549 27.2372 11.5164L25.4616 15.7822C24.4808 18.1365 25.4097 20.9022 27.7509 21.9126C28.3197 22.1582 28.8509 22.3626 29.2663 22.4739C29.6807 22.5849 30.2426 22.6744 30.8581 22.7462" stroke="black" stroke-width="3" stroke-linecap="round" stroke-linejoin="round"/>
<path d="M21.1201 27.3125L16.5401 26.7005C14.0121 26.3635 11.5801 27.9765 11.2101 30.4995C11.1201 31.1125 11.0611 31.6785 11.0611 32.1075C11.0611 32.5375 11.1211 33.1035 11.2111 33.7165C11.5811 36.2395 14.0121 37.8525 16.5401 37.5145L21.1201 36.9035" stroke="black" stroke-width="3" stroke-linecap="round" stroke-linejoin="round"/>
</svg>
