<svg width="48" height="48" viewBox="0 0 48 48" fill="none" xmlns="http://www.w3.org/2000/svg">
<g clip-path="url(#clip0_329_13139)">
<path d="M26.238 22.95C23.8223 21.6643 21.1266 20.9945 18.39 21C9.338 21 2 28.163 2 37C2 37.895 2.075 38.772 2.22 39.627C2.827 43.215 6.29 45.291 9.92 45.55C13.185 45.782 17.775 46 23.512 46C29.452 46 34.072 45.767 37.262 45.525C40.58 45.275 43.963 43.425 43.999 40.098L44 40C44 35.81 41.066 32.288 37.095 31.286" stroke="black" stroke-width="3" stroke-linecap="round" stroke-linejoin="round"/>
<path d="M35.249 33.65C38.666 30.234 40.379 24.087 37.646 21.354C34.913 18.62 28.766 20.334 25.349 23.751C21.932 27.168 22.539 30.994 25.272 33.728" stroke="black" stroke-width="3" stroke-linecap="round" stroke-linejoin="round"/>
<path d="M38 21L43 16" stroke="black" stroke-width="3" stroke-linecap="round" stroke-linejoin="round"/>
<path d="M46 16H43V13" stroke="black" stroke-width="3" stroke-linecap="round" stroke-linejoin="round"/>
<path d="M16.0001 2C14.7471 3.657 14.5891 5.692 16.0001 8C17.4111 10.308 17.2531 12.343 16.0001 14" stroke="black" stroke-width="3" stroke-linecap="round" stroke-linejoin="round"/>
<path d="M6.00012 5C4.74712 6.657 4.58912 8.692 6.00012 11C7.41112 13.308 7.25312 15.343 6.00012 17" stroke="black" stroke-width="3" stroke-linecap="round" stroke-linejoin="round"/>
<path d="M25.9999 4C24.7469 5.657 24.5889 7.692 25.9999 10C27.4109 12.308 27.2529 14.343 25.9999 16" stroke="black" stroke-width="3" stroke-linecap="round" stroke-linejoin="round"/>
</g>
<defs>
<clipPath id="clip0_329_13139">
<rect width="48" height="48" fill="white"/>
</clipPath>
</defs>
</svg>
