<svg width="48" height="48" viewBox="0 0 48 48" fill="none" xmlns="http://www.w3.org/2000/svg">
<g clip-path="url(#clip0_329_13143)">
<path d="M26 18.9999C35.446 18.9999 38.6506 19.1509 41.3626 19.2789C42.8746 19.3509 44.0256 20.5969 43.8116 22.0949C42.4716 31.4739 41.3626 38.9999 23.9996 38.9999C6.63656 38.9999 5.52756 31.4739 4.18756 22.0949H4.18656C3.97356 20.5969 5.12556 19.3499 6.63656 19.2799C8.02591 19.2139 9.5688 19.5543 12.5 19.4999" stroke="black" stroke-width="3" stroke-linecap="round" stroke-linejoin="round"/>
<path d="M38 24C36.718 27.7904 34.2405 30.9757 31 33" stroke="black" stroke-width="3" stroke-linecap="round" stroke-linejoin="round"/>
<path d="M28.0001 19.0142L38.0413 19.1674C38.7914 19.1788 39.5187 18.9088 40.0795 18.4105L41.0232 17.5721C42.2407 16.4905 42.3729 14.6351 41.3212 13.3918L40.3907 12.2919C39.3206 11.0269 37.4277 10.8689 36.1627 11.939L35.501 12.4988" stroke="black" stroke-width="3"/>
<path d="M9 10.5919C7.47338 12.5022 6.5 15.3068 6.5 19.4999C7.83333 19.3332 10.9 19.4999 12.5 19.4999C14.5 19.4999 13.5 24.4997 19.5 24.4997C25.5 24.4997 24.5 17.9997 26.5 15.9997C28.5 13.9997 31.5 16.4997 33.5 15.4997C35.5 14.4997 37.5 10.4998 33.5 7.99987C31.9498 7.03105 29.5 5.5 20.5 6.38149" stroke="black" stroke-width="3"/>
<path d="M13.5144 4.20662C17.7538 2.48891 20.0359 4.32503 20.5917 5.69604C20.7315 6.04115 20.7349 6.53591 19.8981 7.35209C19.0512 8.17813 17.6123 9.02006 15.7675 9.7675C13.9228 10.5149 12.3036 10.9121 11.1206 10.9085C9.95167 10.905 9.60972 10.5474 9.46989 10.2023C9.16357 9.446 9.12518 8.40773 9.64921 7.34478C10.1683 6.292 11.2993 5.10413 13.5144 4.20662Z" stroke="black" stroke-width="3"/>
</g>
<defs>
<clipPath id="clip0_329_13143">
<rect width="48" height="48" fill="white"/>
</clipPath>
</defs>
</svg>
