<svg width="48" height="48" viewBox="0 0 48 48" fill="none" xmlns="http://www.w3.org/2000/svg">
<path d="M33.16 11.907C34.0861 11.666 35.0219 11.4638 35.965 11.301C36.5493 11.2017 37.149 11.2434 37.714 11.4227C38.2789 11.6021 38.7929 11.9138 39.213 12.332C41.307 14.401 45.001 19.16 45.001 27C45.001 34.423 44.675 38.912 44.395 41.397C44.215 42.987 42.977 44.154 41.385 44.309C38.374 44.603 32.695 44.999 23.988 44.999C15.288 44.999 9.61995 44.603 6.61495 44.309C5.02395 44.154 3.78496 42.988 3.60696 41.399C3.34296 39.061 3.03895 34.948 3.00395 28.283C2.99995 27.45 3.24196 26.629 3.81096 26.019C7.13296 22.46 14.738 18.557 22.037 15.639" stroke="black" stroke-width="3" stroke-linecap="round" stroke-linejoin="round"/>
<path d="M34 15C34 15.7879 33.8448 16.5681 33.5433 17.2961C33.2417 18.0241 32.7998 18.6855 32.2426 19.2426C31.6855 19.7998 31.0241 20.2417 30.2961 20.5433C29.5681 20.8448 28.7879 21 28 21C27.2121 21 26.4319 20.8448 25.7039 20.5433C24.9759 20.2417 24.3145 19.7998 23.7574 19.2426C23.2002 18.6855 22.7583 18.0241 22.4567 17.2961C22.1552 16.5681 22 15.7879 22 15C22 13.4087 22.6321 11.8826 23.7574 10.7574C24.8826 9.63214 26.4087 9 28 9C29.5913 9 31.1174 9.63214 32.2426 10.7574C33.3679 11.8826 34 13.4087 34 15Z" stroke="black" stroke-width="3" stroke-linecap="round" stroke-linejoin="round"/>
<path d="M28 9C28 5.686 25.55 3 22 3" stroke="black" stroke-width="3" stroke-linecap="round" stroke-linejoin="round"/>
<path d="M44 36H4" stroke="black" stroke-width="3" stroke-linecap="round" stroke-linejoin="round"/>
<path d="M45 27H4" stroke="black" stroke-width="3" stroke-linecap="round" stroke-linejoin="round"/>
</svg>
