<svg width="48" height="48" viewBox="0 0 48 48" fill="none" xmlns="http://www.w3.org/2000/svg">
<path d="M42.9999 13.32C44.2469 14.444 44.9999 16.026 44.9999 18C44.9999 20.879 43.3969 22.924 40.9999 23.929C40.9999 30.229 40.8359 35.727 40.6889 39.393C40.5769 42.179 38.5109 44.448 35.7309 44.669C33.4929 44.846 30.5209 44.999 26.9409 44.999C23.4429 44.999 20.5239 44.853 18.3039 44.68C16.2589 44.522 14.6029 43.258 13.8069 41.5" stroke="black" stroke-width="3" stroke-linecap="round" stroke-linejoin="round"/>
<path d="M9.937 3.393C6.006 3.68 3 6.058 3 10C3 12.897 4.623 14.949 7.044 15.947C7.103 22.15 7.209 27.575 7.294 31.237C7.361 34.093 9.454 36.46 12.304 36.681C14.524 36.853 17.442 37 20.941 37C24.52 37 27.493 36.846 29.731 36.669C32.511 36.449 34.576 34.179 34.688 31.393C34.836 27.728 35.001 22.229 35 15.929C37.397 14.924 39 12.879 39 10C39 6.058 35.995 3.68 32.063 3.393C28.3813 3.1287 24.6912 2.99761 21 3C16.593 3 12.816 3.184 9.937 3.393Z" stroke="black" stroke-width="3" stroke-linecap="round" stroke-linejoin="round"/>
<path d="M20 12V13" stroke="black" stroke-width="3" stroke-linecap="round" stroke-linejoin="round"/>
<path d="M28 21V22" stroke="black" stroke-width="3" stroke-linecap="round" stroke-linejoin="round"/>
<path d="M16 26V27" stroke="black" stroke-width="3" stroke-linecap="round" stroke-linejoin="round"/>
</svg>
