<svg width="48" height="48" viewBox="0 0 48 48" fill="none" xmlns="http://www.w3.org/2000/svg">
<mask id="path-1-inside-1_329_13130" fill="white">
<path d="M18.1421 9.04252C19.1021 8.75251 19.7106 10.0151 19.0911 10.8038C17.1549 13.2685 16.0001 16.3762 16 19.7536C16 27.7617 22.4919 34.2536 30.5 34.2536C33.8779 34.2536 36.9855 33.0984 39.4502 31.1617C40.2387 30.5421 41.5013 31.1504 41.2114 32.1105C38.9148 39.7158 31.8546 45.2536 23.5 45.2536C13.2827 45.2536 5 36.9709 5 26.7536C5.0002 18.3997 10.5376 11.3397 18.1421 9.04252Z"/>
</mask>
<path d="M16 19.7536L13 19.7535V19.7536H16ZM5 26.7536L2 26.7535V26.7536H5ZM39.4502 31.1617L37.5966 28.8029L39.4502 31.1617ZM41.2114 32.1105L38.3395 31.2432L41.2114 32.1105ZM19.0911 10.8038L16.732 8.95052C14.3954 11.9249 13.0001 15.6805 13 19.7535L16 19.7536L19 19.7537C19.0001 17.072 19.9143 14.6121 21.4502 12.657L19.0911 10.8038ZM16 19.7536H13C13 29.4186 20.835 37.2536 30.5 37.2536V34.2536V31.2536C24.1487 31.2536 19 26.1049 19 19.7536H16ZM30.5 34.2536V37.2536C34.5738 37.2536 38.3294 35.8578 41.3037 33.5206L39.4502 31.1617L37.5966 28.8029C35.6415 30.3391 33.1819 31.2536 30.5 31.2536V34.2536ZM41.2114 32.1105L38.3395 31.2432C36.4146 37.6175 30.4952 42.2536 23.5 42.2536V45.2536V48.2536C33.214 48.2536 41.4149 41.814 44.0833 32.9778L41.2114 32.1105ZM23.5 45.2536V42.2536C14.9396 42.2536 8 35.314 8 26.7536H5H2C2 38.6277 11.6259 48.2536 23.5 48.2536V45.2536ZM5 26.7536L8 26.7537C8.00017 19.759 12.6359 13.8397 19.0096 11.9144L18.1421 9.04252L17.2746 6.17069C8.43925 8.83963 2.00023 17.0403 2 26.7535L5 26.7536ZM39.4502 31.1617L41.3037 33.5206C40.6724 34.0167 39.9057 33.991 39.3618 33.7109C39.068 33.5596 38.7141 33.2741 38.4787 32.7968C38.2228 32.2779 38.1985 31.7102 38.3395 31.2432L41.2114 32.1105L44.0833 32.9778C44.7295 30.8377 43.5 29.0931 42.1086 28.3766C40.8088 27.7072 39.0165 27.6871 37.5966 28.8029L39.4502 31.1617ZM19.0911 10.8038L21.4502 12.657C22.5658 11.237 22.5454 9.44469 21.8759 8.14496C21.1594 6.75376 19.4146 5.52423 17.2746 6.17069L18.1421 9.04252L19.0096 11.9144C18.5426 12.0554 17.9749 12.0311 17.4559 11.7752C16.9786 11.5399 16.6932 11.1861 16.5419 10.8923C16.2618 10.3486 16.2359 9.58193 16.732 8.95052L19.0911 10.8038Z" fill="black" mask="url(#path-1-inside-1_329_13130)"/>
<path d="M27 12V22" stroke="black" stroke-width="3" stroke-linecap="round"/>
<path d="M32 28V29" stroke="black" stroke-width="3" stroke-linecap="round"/>
<path d="M32 17H22" stroke="black" stroke-width="3" stroke-linecap="round"/>
<path d="M38.5 21.5V22.5" stroke="black" stroke-width="3" stroke-linecap="round"/>
</svg>
